<?xml version="1.0" encoding="UTF-8" standalone="no"?><svg version="1.1" id="Réteg_1" xmlns="http://www.w3.org/2000/svg" xmlns:xlink="http://www.w3.org/1999/xlink" x="0px" y="0px" viewBox="0 0 605 80" style="enable-background:new 0 0 605 80;" xml:space="preserve"><style type="text/css">.st0{fill:#FFFFFF;}</style><path id="svg_7" class="st0" d="M77.6,3.9C88.7,1.7,101,5,109,13.2c11.8,11.6,12.2,32.2,1.4,44.6c-11.6,13.5-34,14.8-47.6,3.7	c-13.4-10.5-15.5-32-5.2-45.3C62.4,9.9,69.8,5.5,77.6,3.9 M80.6,20.9c-8.1,2.7-11.4,12.8-9,20.6c1.6,7,9.1,12.3,16.3,10.2	c9.5-2.5,12.9-14.7,9-23C94.3,22.4,87,18.6,80.6,20.9"/><path id="svg_8" class="st0" d="M251.2,10.1c6.8-6.7,17.2-7.9,26.2-6.2c6.3,1.1,12.2,3.9,16.8,8.3c-3,4.4-6.3,8.5-9.9,12.4c-4.6-2.8-9.7-5.8-15.4-5c-1.4,0.2-3.5,1.4-3.2,3c-0.1,2.3,2.4,3.1,4.2,3.9c6.9,2.6,14.7,4,20,9.6c6.8,6.8,6.3,18.9-0.3,25.6c-6,6.4-15.5,7.9-23.9,7c-8.1-0.8-16.7-3.5-22.3-9.7c2-5.1,6.3-8.9,9.4-13.3c5.3,3.1,10.6,7.1,16.9,7.1c2.4,0.2,5.5-1.8,4.8-4.5c-0.3-1.9-2.4-2.4-3.9-3.2c-6.6-2.7-14.3-3.8-19.6-9.1C244.1,29.4,244,16.8,251.2,10.1"/><path id="svg_9" class="st0" d="M306.2,15.1c8.6-10.4,23.7-14.3,36.5-10.2c9,2.8,16.9,9.4,20.5,18.2c3,7.1,3.3,15.4,1.3,22.8c-1.5,5.6-5.1,10.2-8.3,14.9c3.5-0.1,7-0.5,10.5-1.1c-1,6.3-2.3,12.4-3.8,18.6c-6.9-0.3-14-1.6-19.9-5.4c-2.8-1.7-5.3-4.3-8.8-3.9c-8.7,0.4-17.6-2.1-24.3-7.8C296.5,50.1,294.9,28.1,306.2,15.1 M328.3,20.9c-8.3,2.7-11.5,13-9,20.7c1.7,6.9,9.2,12.2,16.3,10c10-2.7,13.1-16,8.2-24.3C341,21.8,334.2,18.8,328.3,20.9"/><path id="svg_10" class="st0" d="M2.9,4.4C18.4,4.1,34,4,49.5,4.5c-0.5,5.4-1.7,10.7-3,15.9c-8.5,0.2-17,0-25.5,0.1c0.1,3,0.1,6.1,0,9.2c7.9,0.1,15.7-0.1,23.6,0.2c-0.8,5.4-1.9,10.8-3.2,16.1c-6.8,0.1-13.6,0.1-20.3,0.1c0,7.4,0.1,14.8-0.2,22.3c-6,0.3-12,0.3-18,0C2.6,47,2.6,25.7,2.9,4.4"/><path id="svg_11" class="st0" d="M125.2,4.4c6-0.2,12-0.2,18.1,0.1c0.5,12.5,0,25.1,0.2,37.6c0.2,2.9,0.3,6.4,2.7,8.4c2.7,1.6,6.2,1.6,9,0.4c3-1.7,3.2-5.7,3.4-8.8c0.3-12.5-0.2-25.1,0.2-37.6c6-0.3,12-0.3,18.1-0.1c0.3,13.9,0.1,27.8,0.1,41.7c0.2,6.4-2.3,13-7.4,17c-7.2,5.9-17.2,6.8-26.1,5.2c-6.7-1.1-13.1-5.2-16.2-11.4c-2.4-4.2-2.4-9.2-2.4-14C125.2,30.1,124.9,17.3,125.2,4.4"/><path id="svg_12" class="st0" d="M185.4,4.5c8.4-0.4,16.9-0.1,25.3-0.2c4.9,0,10-0.2,14.6,1.7c5.5,2.1,10.4,6.3,12.5,11.9c2.1,5.4,1.8,11.7-0.6,17.1c-1.9,4.1-5.7,6.9-9.3,9.4c4.2,8.1,9.4,15.8,13.5,24c-6.8,0.4-13.6,0.3-20.3,0.1c-4-7-7.7-14.2-11.6-21.2c-2,0-4,0-6-0.1c-0.1,7.1,0.1,14.1-0.2,21.2c-6,0.3-12,0.3-18,0C185.1,47,185.1,25.7,185.4,4.5 M203.6,20.6c0,3.7,0,7.5,0,11.3c4.7-0.2,9.7,0.6,14.2-1.1c3.6-1.6,3.4-7.3-0.1-8.8C213.2,19.9,208.2,20.7,203.6,20.6"/><path id="svg_13" class="st0" d="M373,4.5c6-0.3,12-0.3,18,0c0.5,12.9-0.1,25.8,0.2,38.6c0.1,3.1,0.7,7.1,4.2,8.1c2.9,0.8,6.5,0.8,8.8-1.3c2.1-2.5,2-5.9,2.2-8.9c0.2-12.2-0.2-24.4,0.2-36.6c6-0.3,12-0.3,18,0c0.4,13.9,0.1,27.8,0.2,41.7c0.2,6.4-2.4,12.9-7.4,17c-7.2,5.9-17.3,6.8-26.1,5.2c-7.5-1.3-14.4-6.3-17.1-13.5c-1.8-4.7-1.3-9.9-1.4-14.9C373,28.1,372.6,16.3,373,4.5"/><path id="svg_14" class="st0" d="M446.4,4.4c7.7-0.3,15.4-0.3,23.1,0c6.4,21.3,13.1,42.5,18.9,64c-6.4-0.2-12.9,0.9-19.1-0.5c-1.5-3.5-2.4-7.1-3.4-10.7c-5.1,0.1-10.2-0.4-15.2,0.2c-2.6,2.9-1.6,8.2-4.6,10.7c-6.1,0.8-12.2,0.1-18.3,0.2c2.2-9.4,5.4-18.5,8-27.8C439.2,28.5,442.7,16.4,446.4,4.4 M457.9,22.2c-2.3,5.8-3.8,11.8-5.6,17.7c3.8,0,7.5,0,11.3,0C461.7,34,460.1,28,457.9,22.2"/><path id="svg_15" class="st0" d="M494.3,4.4c8.4-0.4,16.9-0.1,25.3-0.2c4.9,0,10-0.2,14.6,1.7c5.5,2.1,10.4,6.3,12.5,11.9c2.1,5.4,1.8,11.7-0.6,17c-1.9,4.1-5.7,6.9-9.3,9.4c4.2,8.1,9.4,15.8,13.5,24c-6.8,0.4-13.6,0.3-20.3,0.1c-4-7-7.7-14.2-11.6-21.2c-2,0-4,0-6-0.1c-0.1,7.1,0.1,14.1-0.2,21.2c-6,0.3-12,0.3-18,0C494,47,494,25.7,494.3,4.4 M512.5,20.6c0,3.7,0,7.5,0,11.3c4.7-0.2,9.7,0.6,14.2-1.1c3.6-1.6,3.4-7.3-0.1-8.8C522.1,19.9,517.1,20.7,512.5,20.6"/><path id="svg_16" class="st0" d="M556.6,4.5C572,4,587.3,4.4,602.7,4.3c-0.1,5.5-1.6,10.8-2.9,16.1c-8.4,0.4-16.8,0.1-25.2,0.2v7.1c7.8,0.1,15.7-0.1,23.6,0.2c-0.7,5.4-1.9,10.7-3.3,16c-6.8,0.2-13.5,0.2-20.3,0.1c0,2.7,0,5.4,0,8.1c9.2,0.1,18.4-0.2,27.6,0.2c-0.5,5.4-1.7,10.8-3.2,16c-14.2,0.1-28.4,0.3-42.6-0.1c-0.4-11.8-0.1-23.7-0.2-35.5C556.4,23.4,556,13.9,556.6,4.5"/></svg>
